#!OML:ASF I:\golf\golf\golf 2\Subject 1\2002-09-07\Subject1.ASF
:FULLY-SPECIFIED
:DEGREES
127
root -11.0205 17.9299 4.73005 -6.37772 80.2248 -25.5759
lowerback 4.46859 1.13312 -2.60622
upperback 5.51684 1.53779 3.60054
thorax 3.03525 0.667912 5.17537
lowerneck -13.1685 -0.589104 1.18164
upperneck 41.3704 3.09388 -5.1916
head 17.5844 1.30196 -1.86638
rclavicle -2.76311e-014 1.98785e-014
rhumerus -14.0139 24.1784 -98.8878
rradius 47.1657
rwrist -49.9885
rhand -32.7571 -8.41531
rfingers 7.12502
rthumb -5.97975 -38.3109
lclavicle -2.76311e-014 1.98785e-014
lhumerus -8.46439 -44.6196 104.69
lradius 42.8139
lwrist 47.7551
lhand -6.85408 63.4303
lfingers 7.12502
lthumb -160.989 87.4788
rfemur -35.1168 -1.31663 16.7572
rtibia 29.2684
rfoot -7.799 -3.47374
rtoes -6.48521
lfemur -32.6675 6.56827 -9.47122
ltibia 27.3614
lfoot -9.16308 1.00576
ltoes -21.5978
128
root -11.0189 17.9311 4.73039 -6.14628 80.1559 -25.3516
lowerback 4.43 1.11676 -2.61588
upperback 5.51266 1.51563 3.54616
thorax 3.05576 0.656482 5.12504
lowerneck -13.1645 -0.553739 1.24097
upperneck 41.3949 3.13991 -5.20935
head 17.6016 1.3271 -1.87811
rclavicle -2.92213e-014 -5.48646e-014
rhumerus -13.9877 23.8776 -98.9385
rradius 47.0973
rwrist -49.6304
rhand -32.5978 -8.31505
rfingers 7.12502
rthumb -5.82593 -38.215
lclavicle -2.92213e-014 -5.48646e-014
lhumerus -8.51105 -44.6761 104.689
lradius 42.8604
lwrist 47.7266
lhand -6.60329 63.5925
lfingers 7.12502
lthumb -160.748 87.3405
rfemur -35.1252 -1.30037 16.7498
rtibia 29.2553
rfoot -7.81671 -3.40571
rtoes -7.05611
lfemur -32.6615 6.5942 -9.49129
ltibia 27.3851
lfoot -9.17157 1.04873
ltoes -21.8127
129
root -11.0176 17.9293 4.72887 -5.84999 80.1035 -25.0583
lowerback 4.42257 1.07727 -2.66199
upperback 5.49794 1.46145 3.5316
thorax 3.04993 0.627893 5.13708
lowerneck -13.1507 -0.530818 1.18467
upperneck 41.408 3.19588 -5.21227
head 17.6087 1.34002 -1.85964
rclavicle -6.95746e-015 1.03368e-014
rhumerus -14.0791 23.9078 -98.9017
rradius 47.2258
rwrist -49.6525
rhand -32.6427 -8.40818
rfingers 7.12502
rthumb -5.86928 -38.3069
lclavicle -6.95746e-015 1.03368e-014
lhumerus -8.56882 -44.6312 104.756
lradius 42.8944
lwrist 47.7198
lhand -6.78148 63.6175
lfingers 7.12502
lthumb -160.919 87.2985
rfemur -35.1338 -1.25789 16.707
rtibia 29.2439
rfoot -7.81125 -3.38907
rtoes -7.13353
lfemur -32.6515 6.5671 -9.50942
ltibia 27.4142
lfoot -9.16631 1.12606
ltoes -21.8108
130
root -11.016 17.9272 4.7291 -5.54928 79.9502 -24.7297
lowerback 4.42145 1.0893 -2.7298
upperback 5.51372 1.47602 3.5193
thorax 3.06462 0.632319 5.16283
lowerneck -13.1524 -0.527845 1.16487
upperneck 41.3931 3.21267 -5.23861
head 17.6023 1.33885 -1.86516
rclavicle 3.97569e-016 -2.74323e-014
rhumerus -14.0728 23.9616 -98.8583
rradius 47.2705
rwrist -49.7097
rhand -32.7037 -8.47083
rfingers 7.12502
rthumb -5.92819 -38.3679
lclavicle 3.97569e-016 -2.74323e-014
lhumerus -8.61707 -44.6815 104.782
lradius 42.9996
lwrist 47.828
lhand -6.92986 63.4395
lfingers 7.12502
lthumb -161.062 87.4624
rfemur -35.1164 -1.10128 16.6715
rtibia 29.2376
rfoot -7.77338 -3.38869
rtoes -6.80285
lfemur -32.5697 6.56849 -9.48401
ltibia 27.4432
lfoot -9.16604 1.29675
ltoes -21.8902
131
root -11.014 17.9269 4.72919 -5.24706 79.7915 -24.3949
lowerback 4.38755 1.12252 -2.7419
upperback 5.5489 1.52089 3.45735
thorax 3.11648 0.653624 5.1052
lowerneck -13.1572 -0.529133 1.23876
upperneck 41.3724 3.1898 -5.26245
head 17.5915 1.33642 -1.89374
rclavicle 1.98785e-015 2.5842e-014
rhumerus -13.9734 23.7668 -98.8867
rradius 47.2094
rwrist -49.5456
rhand -32.5704 -8.41652
rfingers 7.12502
rthumb -5.79948 -38.3172
lclavicle 1.98785e-015 2.5842e-014
lhumerus -8.63939 -44.9565 104.713
lradius 43.2085
lwrist 48.2719
lhand -6.30832 63.4169
lfingers 7.12502
lthumb -160.464 87.5446
rfemur -35.0936 -0.964017 16.6424
rtibia 29.2338
rfoot -7.76718 -3.38647
rtoes -6.88629
lfemur -32.4835 6.61931 -9.48295
ltibia 27.4654
lfoot -9.18102 1.42196
ltoes -21.644
